<svg width="8" height="8" viewBox="0 0 8 8" fill="none" xmlns="http://www.w3.org/2000/svg">
<path d="M4.57795 3.99949L7.50764 0.507305C7.55675 0.449269 7.51545 0.361099 7.43956 0.361099H6.54894C6.49648 0.361099 6.44626 0.384537 6.41166 0.424715L3.99536 3.3053L1.57907 0.424715C1.54559 0.384537 1.49536 0.361099 1.44179 0.361099H0.551167C0.475274 0.361099 0.43398 0.449269 0.483087 0.507305L3.41277 3.99949L0.483087 7.49168C0.472086 7.50462 0.465029 7.52044 0.462753 7.53726C0.460476 7.55409 0.463076 7.57122 0.470245 7.58661C0.477413 7.60201 0.488848 7.61502 0.503192 7.62411C0.517536 7.6332 0.534187 7.63798 0.551167 7.63789H1.44179C1.49425 7.63789 1.54447 7.61445 1.57907 7.57427L3.99536 4.69369L6.41166 7.57427C6.44514 7.61445 6.49536 7.63789 6.54894 7.63789H7.43956C7.51545 7.63789 7.55675 7.54972 7.50764 7.49168L4.57795 3.99949Z" fill="white"/>
</svg>
