<svg width="10" height="10" viewBox="0 0 10 10" fill="none" xmlns="http://www.w3.org/2000/svg">
<g id="Close">
<path id="Vector" d="M5.57795 4.99949L8.50764 1.5073C8.55675 1.44927 8.51545 1.3611 8.43956 1.3611H7.54894C7.49648 1.3611 7.44626 1.38454 7.41166 1.42472L4.99536 4.3053L2.57907 1.42472C2.54559 1.38454 2.49536 1.3611 2.44179 1.3611H1.55117C1.47527 1.3611 1.43398 1.44927 1.48309 1.5073L4.41277 4.99949L1.48309 8.49168C1.47209 8.50462 1.46503 8.52044 1.46275 8.53726C1.46048 8.55409 1.46308 8.57122 1.47024 8.58661C1.47741 8.60201 1.48885 8.61502 1.50319 8.62411C1.51754 8.6332 1.53419 8.63798 1.55117 8.63789H2.44179C2.49425 8.63789 2.54447 8.61445 2.57907 8.57427L4.99536 5.69369L7.41166 8.57427C7.44514 8.61445 7.49536 8.63789 7.54894 8.63789H8.43956C8.51545 8.63789 8.55675 8.54972 8.50764 8.49168L5.57795 4.99949Z" fill="white"/>
</g>
</svg>
